# xmcd
#
# Track frame offsets:
#	150
#	14393
#	31708
#	45501
#	60998
#	77745
#	90048
#	109863
#	126377
#	140797
#	154768
#	169077
#	187363
#	204625
#	219125
#	237189
#	251634
#	266343
#	279509
#	293179
#
# Disc length: 4116 seconds
#
# Revision: 0
# Processed by: cddbd v1.5.2PL0 Copyright (c) Steve Scherf et al.
# Submitted via: EasyCDDAExtractor 16.0.6.1
#
DISCID=16101214
DTITLE=Συλλογικός δίσκος - Τα ρεμπέτικα Α 1850-1922 02 Β
DYEAR=2010
DGENRE=Ρεμπέτικη
TTITLE0=Διαμαντίδης Αντώνης ή Νταλγκάς - Τα μπαγλαμαδάκια [ρεμπέτικο, ζεϊμπέκι
TTITLE0=κος, Αθήνα 1930]
TTITLE1=Παπαγκίκα Μαρίκα - Αθήνα και Πειραία μου [ζεϊμπέκικος, Νέα Υόρκη 1923]
TTITLE2=Βιδάλης Γιώργος - Σάλα, σάλα [τσίφτε-τέλλι, Αθήνα 1925]
TTITLE3=Καρίπης Κώστας - Χασάπικο το μάγκικο [δημώδες, χασάπικος, Αθήνα 1929]
TTITLE4=Βάκα Αμαλία - Ο μπερμπάντης [ζεϊμπέκικο, Νέα Υόρκη 10.8.1927]
TTITLE5=Διαμαντίδης Αντώνης ή Νταλγκάς - Της τριανταφυλλιάς τα φύλλα [Αθήνα 19
TTITLE5=29]
TTITLE6=Κατσαρός Γιώργος - Πότε μαύρα, πότε άσπρα [ζεϊμπέκικο, Κάμντεν, Νέα Υε
TTITLE6=ρσέη 18.5.1928]
TTITLE7=Παπαγκίκα Μαρίκα - Δύο ψαράκια μελανούρια [ζεϊμπέκικος, Νέα Υόρκη 1925
TTITLE7=]
TTITLE8=Σωφρονίου Ευάγγελος - Μπάλλος σμυρναίϊκος (με αμανέ)[Αθήνα 1928]
TTITLE9=Δημητριάδης Τέτος - Γιάφ γιούφ [Νέα Υόρκη Οκτ. 1925]
TTITLE10=Άνευ ερμηνευτού - Χορός χασάπικος [δημώδες, οργανικό, Αθήνα 1927]
TTITLE11=Δούσας Κώστας - Το καλογεράκι [ρεμπέτικο, απτάλικος, Σικάγο, Δεκ. 193
TTITLE11=0]
TTITLE12=Κούλα κυρία - Τα ούλα σου [ζεϊμπέκικο, απτάλικος, Νέα Υόρκη 1920]
TTITLE13=Διαμαντίδης Αντώνης ή Νταλγκάς - Εγώ είμ' ενός ψαρά παιδί [συρτός, Αθ
TTITLE13=ήνα 1929]
TTITLE14=Παπαγκίκα Μαρίκα - Τούρνα [Νέα Υόρκη Φεβρ. 1927]
TTITLE15=Θωμαΐδης Κώστας - Τζιβαέρι (αφού υπάρχει θάνατος)[Αθήνα 1929]
TTITLE16=Σωφρονίου Ευάγγελος - Οι χασικλήδες [δημώδες, Αθήνα 1928]
TTITLE17=Βιδάλης Γιώργος - Τα κομμένα μαλλιά (Ψαράδες)[Αθήνα 1927]
TTITLE18=Διαμαντίδης Αντώνης ή Νταλγκάς - Τι να κάμω η κακομοίρα [ζεϊμπέκικος,
TTITLE18=Αθήνα 1930]
TTITLE19=Παπαγκίκα Μαρίκα - Σμυρναίϊκο μινόρε [Νέα Υόρκη Ιούλ. 1919]
EXTD=
EXTT0=
EXTT1=
EXTT2=
EXTT3=
EXTT4=
EXTT5=
EXTT6=
EXTT7=
EXTT8=
EXTT9=
EXTT10=
EXTT11=
EXTT12=
EXTT13=
EXTT14=
EXTT15=
EXTT16=
EXTT17=
EXTT18=
EXTT19=
PLAYORDER=
